#N canvas 100 496 948 308 12;
#X obj 288 8 receive fromGUI;
#X text 444 10 see values coming in from GUI widgets;
#X obj 288 40 list trim;
#X obj 288 74 route /myButton1 /myButton2 /myButton3 /myButton4 /myButton5 /myButton6;
#X obj 34 76 ctlin 67;
#X obj 114 75 ctlin 66;
#X obj 196 75 ctlin 64;
#X obj 351 226 keyout;
#X obj 506 226 keyout;
#X obj 655 226 keyout;
#X obj 34 123 moses 127;
#X obj 196 121 moses 127;
#X obj 114 122 moses 127;
#X msg 655 177 67;
#X msg 506 176 49;
#X msg 351 175 82;
#X connect 0 0 2 0;
#X connect 2 0 3 0;
#X connect 3 2 15 0;
#X connect 3 3 14 0;
#X connect 3 4 13 0;
#X connect 4 0 10 0;
#X connect 5 0 12 0;
#X connect 6 0 11 0;
#X connect 10 1 15 0;
#X connect 11 1 13 0;
#X connect 12 1 14 0;
#X connect 13 0 9 0;
#X connect 14 0 8 0;
#X connect 15 0 7 0;
