#N canvas 33 495 948 308 12;
#X obj 288 8 receive fromGUI;
#X text 444 10 see values coming in from GUI widgets;
#X obj 288 40 list trim;
#X obj 288 74 route /myButton1 /myButton2 /myButton3 /myButton4 /myButton5 /myButton6;
#X obj 34 76 ctlin 67;
#X obj 114 75 ctlin 66;
#X obj 196 75 ctlin 64;
#X obj 341 271 keyout;
#X obj 496 270 keyout;
#X obj 667 269 keyout;
#X obj 94 160 bng 15 250 50 0 empty empty empty 17 7 0 10 #fcfcfc #000000 #000000;
#X obj 288 140 bng 15 250 50 0 empty empty empty 17 7 0 10 #fcfcfc #000000 #000000;
#X obj 174 151 bng 15 250 50 0 empty empty empty 17 7 0 10 #fcfcfc #000000 #000000;
#X floatatom 341 236 5 0 0 0 - - - 0;
#X floatatom 496 235 5 0 0 0 - - - 0;
#X floatatom 667 233 5 0 0 0 - - - 0;
#X obj 34 123 moses 127;
#X obj 196 121 moses 127;
#X obj 114 122 moses 127;
#X msg 341 193 126;
#X msg 496 193 125;
#X msg 667 193 67;
#X connect 0 0 2 0;
#X connect 2 0 3 0;
#X connect 3 2 19 0;
#X connect 3 3 20 0;
#X connect 3 4 21 0;
#X connect 4 0 16 0;
#X connect 5 0 18 0;
#X connect 6 0 17 0;
#X connect 10 0 19 0;
#X connect 11 0 21 0;
#X connect 12 0 20 0;
#X connect 13 0 7 0;
#X connect 14 0 8 0;
#X connect 15 0 9 0;
#X connect 16 1 10 0;
#X connect 17 1 11 0;
#X connect 18 1 12 0;
#X connect 19 0 13 0;
#X connect 20 0 14 0;
#X connect 21 0 15 0;
